<?xml version="1.0" standalone="no"?>
<!DOCTYPE svg PUBLIC "-//W3C//DTD SVG 20010904//EN"
 "http://www.w3.org/TR/2001/REC-SVG-20010904/DTD/svg10.dtd">
<svg version="1.0" xmlns="http://www.w3.org/2000/svg"
 width="750.000000pt" height="750.000000pt" viewBox="0 0 750.000000 750.000000"
 preserveAspectRatio="xMidYMid meet">
<metadata>
Created by potrace 1.11, written by Peter Selinger 2001-2013
</metadata>
<g transform="translate(0.000000,750.000000) scale(0.100000,-0.100000)"
fill="#000000" stroke="none">
<path d="M2500 7392 c0 -4 30 -48 66 -97 216 -292 379 -579 450 -790 80 -240
65 -487 -57 -932 -148 -540 -354 -1010 -688 -1569 -434 -729 -584 -1051 -655
-1406 -39 -191 -49 -289 -49 -483 0 -357 57 -568 258 -970 146 -292 314 -560
518 -824 l77 -101 141 0 141 0 -64 47 c-96 71 -256 237 -325 339 -118 173
-199 368 -240 579 -26 135 -23 397 5 531 65 306 188 532 406 750 290 288 625
428 1026 427 185 0 295 -17 465 -74 492 -164 854 -572 967 -1092 32 -145 32
-437 0 -579 -42 -189 -112 -359 -212 -513 -50 -76 -255 -292 -359 -378 l-45
-37 486 0 487 0 66 83 c383 477 638 1103 717 1762 19 160 16 604 -6 770 -35
269 -92 524 -176 775 -56 171 -302 870 -323 920 l-15 35 -6 -50 c-17 -133 -58
-342 -90 -452 -141 -490 -420 -971 -675 -1167 -66 -51 -138 -93 -145 -85 -3 2
4 34 15 69 169 541 248 1128 209 1555 -45 482 -221 1024 -465 1434 -360 602
-1017 1149 -1778 1480 -127 55 -127 55 -127 43z"/>
<path d="M3400 2747 c-77 -22 -142 -60 -201 -117 -182 -178 -184 -463 -3 -646
55 -56 109 -88 194 -115 l55 -17 3 -111 c3 -141 -11 -147 -53 -25 l-30 87 -64
29 c-112 50 -107 53 -101 -50 l5 -89 70 -58 c39 -32 72 -60 74 -61 1 -2 0 -7
-3 -12 -4 -6 -49 3 -113 22 l-108 32 -7 85 c-11 134 -53 224 -147 312 -142
133 -370 156 -543 54 -91 -53 -175 -166 -202 -272 -69 -261 100 -522 367 -568
140 -24 294 28 398 133 30 31 61 71 68 88 8 18 21 32 30 32 30 0 198 -55 200
-65 2 -11 1 -11 -110 -20 l-76 -6 -53 -70 c-29 -38 -51 -71 -49 -73 4 -4 155
-36 169 -36 4 0 41 25 84 55 51 37 76 50 76 40 0 -9 -27 -56 -60 -104 l-59
-89 -63 20 c-50 16 -82 19 -155 15 -79 -4 -102 -9 -168 -40 -276 -131 -349
-473 -152 -712 42 -52 137 -111 215 -135 288 -89 582 130 582 434 0 115 -38
221 -107 296 -21 24 -33 46 -29 55 4 11 97 155 112 174 1 1 7 0 12 -3 6 -4 0
-41 -14 -95 l-25 -89 47 -76 47 -77 50 75 49 75 -22 91 c-12 50 -20 93 -17 96
3 3 33 -35 67 -86 l61 -91 -33 -42 c-126 -156 -148 -331 -64 -502 156 -316
586 -343 785 -50 93 135 100 336 18 475 -110 186 -329 273 -528 210 -35 -10
-64 -18 -65 -17 -38 55 -124 188 -124 192 0 14 29 0 93 -46 l70 -51 86 17 c47
10 88 19 90 21 2 2 -20 34 -50 71 -29 37 -53 69 -54 70 -1 1 -44 6 -96 10 -53
5 -93 12 -92 18 1 9 172 64 199 65 7 0 26 -22 44 -49 95 -150 280 -232 453
-203 196 33 345 182 378 378 30 174 -52 357 -203 454 -81 53 -165 74 -276 68
-79 -4 -100 -9 -164 -41 -98 -48 -167 -116 -214 -212 -32 -65 -38 -88 -43
-167 l-6 -92 -95 -28 c-153 -45 -163 -38 -64 42 36 29 70 64 75 77 5 14 9 56
9 94 0 81 6 79 -106 29 l-60 -27 -30 -83 c-43 -122 -55 -117 -52 21 l3 113 47
12 c154 39 282 165 323 318 23 85 17 208 -15 289 -41 108 -149 215 -260 259
-68 26 -213 34 -280 15z"/>
</g>
</svg>
